<svg width="645" height="608" viewBox="0 0 645 608" fill="none" xmlns="http://www.w3.org/2000/svg">
<rect width="645" height="608" fill="#EB413D"/>
<g filter="url(#filter0_d_164_51200)">
<path d="M320.276 89.454C321.347 87.8914 323.653 87.8914 324.724 89.454L335.239 104.796C335.589 105.308 336.106 105.683 336.7 105.858L354.541 111.117C356.358 111.653 357.071 113.846 355.916 115.348L344.573 130.089C344.195 130.58 343.998 131.187 344.015 131.807L344.526 150.4C344.579 152.294 342.713 153.649 340.928 153.014L323.403 146.783C322.819 146.575 322.181 146.575 321.597 146.783L304.072 153.014C302.287 153.649 300.421 152.294 300.473 150.4L300.985 131.807C301.002 131.187 300.805 130.58 300.427 130.089L289.084 115.348C287.929 113.846 288.642 111.653 290.459 111.117L308.3 105.858C308.894 105.683 309.411 105.308 309.761 104.796L320.276 89.454Z" fill="white"/>
</g>
<path d="M344.139 190.497H299.883V205.881H317.866V260.428H333.849V205.881H351.831V198.191C351.831 193.944 348.388 190.499 344.139 190.499" fill="white"/>
<path d="M392.019 245.044H374.736V198.49C374.736 194.075 371.16 190.497 366.745 190.497H358.753V247.981C358.753 254.855 364.326 260.43 371.202 260.43H399.713V252.739C399.713 248.492 396.268 245.047 392.021 245.047" fill="white"/>
<path d="M283.887 234.751C291.577 230.855 296.774 223.063 296.774 214.471C296.774 201.186 286.083 190.497 272.798 190.497H260.222C251.717 190.497 244.824 197.39 244.824 205.895V260.426H260.809V237.449H268.4L281.588 260.426H298.772L283.887 234.751ZM272.796 223.462H260.809V209.976C260.809 207.429 262.606 205.481 264.804 205.481H272.796C277.19 205.481 280.787 209.378 280.787 214.471C280.787 219.565 277.19 223.464 272.796 223.464" fill="white"/>
<path d="M200.615 319.051C200.615 320.208 201.368 321.164 202.873 321.916C204.436 322.611 206.318 323.248 208.518 323.827C210.718 324.348 212.918 325.043 215.118 325.911C217.318 326.722 219.17 328.111 220.675 330.079C222.239 332.048 223.02 334.508 223.02 337.461C223.02 341.919 221.341 345.363 217.983 347.795C214.683 350.169 210.544 351.355 205.565 351.355C196.649 351.355 190.571 347.911 187.328 341.021L197.055 335.55C198.328 339.313 201.165 341.195 205.565 341.195C209.56 341.195 211.557 339.95 211.557 337.461C211.557 336.303 210.776 335.377 209.212 334.682C207.707 333.929 205.855 333.264 203.655 332.685C201.455 332.106 199.255 331.382 197.055 330.514C194.855 329.645 192.973 328.285 191.41 326.432C189.905 324.522 189.152 322.148 189.152 319.311C189.152 315.027 190.715 311.669 193.842 309.238C197.026 306.748 200.963 305.503 205.652 305.503C209.183 305.503 212.397 306.314 215.291 307.935C218.186 309.498 220.473 311.756 222.152 314.709L212.599 319.919C211.21 316.966 208.894 315.49 205.652 315.49C204.205 315.49 202.989 315.809 202.005 316.445C201.078 317.082 200.615 317.951 200.615 319.051ZM266.625 344.756C262.167 349.155 256.725 351.355 250.299 351.355C243.873 351.355 238.431 349.155 233.973 344.756C229.573 340.298 227.373 334.856 227.373 328.429C227.373 322.003 229.573 316.59 233.973 312.19C238.431 307.732 243.873 305.503 250.299 305.503C256.725 305.503 262.167 307.732 266.625 312.19C271.083 316.59 273.312 322.003 273.312 328.429C273.312 334.856 271.083 340.298 266.625 344.756ZM241.875 337.027C244.133 339.285 246.941 340.413 250.299 340.413C253.657 340.413 256.465 339.285 258.723 337.027C260.98 334.769 262.109 331.903 262.109 328.429C262.109 324.956 260.98 322.09 258.723 319.832C256.465 317.574 253.657 316.445 250.299 316.445C246.941 316.445 244.133 317.574 241.875 319.832C239.675 322.09 238.575 324.956 238.575 328.429C238.575 331.903 239.675 334.769 241.875 337.027ZM309.85 306.719H321.053V350.14H309.85V345.277C307.129 349.329 302.816 351.355 296.911 351.355C292.163 351.355 288.227 349.763 285.1 346.579C282.032 343.395 280.498 338.995 280.498 333.379V306.719H291.7V331.99C291.7 334.885 292.482 337.114 294.045 338.677C295.608 340.182 297.692 340.935 300.298 340.935C303.192 340.935 305.508 340.037 307.245 338.242C308.982 336.448 309.85 333.756 309.85 330.166V306.719ZM341.307 319.051C341.307 320.208 342.06 321.164 343.565 321.916C345.128 322.611 347.01 323.248 349.21 323.827C351.41 324.348 353.61 325.043 355.81 325.911C358.01 326.722 359.862 328.111 361.368 330.079C362.931 332.048 363.712 334.508 363.712 337.461C363.712 341.919 362.034 345.363 358.676 347.795C355.376 350.169 351.236 351.355 346.257 351.355C337.342 351.355 331.263 347.911 328.021 341.021L337.747 335.55C339.021 339.313 341.857 341.195 346.257 341.195C350.252 341.195 352.249 339.95 352.249 337.461C352.249 336.303 351.468 335.377 349.905 334.682C348.399 333.929 346.547 333.264 344.347 332.685C342.147 332.106 339.947 331.382 337.747 330.514C335.547 329.645 333.666 328.285 332.102 326.432C330.597 324.522 329.845 322.148 329.845 319.311C329.845 315.027 331.408 311.669 334.534 309.238C337.718 306.748 341.655 305.503 346.344 305.503C349.876 305.503 353.089 306.314 355.984 307.935C358.878 309.498 361.165 311.756 362.844 314.709L353.292 319.919C351.902 316.966 349.586 315.49 346.344 315.49C344.897 315.49 343.681 315.809 342.697 316.445C341.771 317.082 341.307 317.951 341.307 319.051ZM393.051 350.14V286.746H404.254V350.14H393.051ZM423.973 333.032C425.478 338.474 429.559 341.195 436.217 341.195C440.501 341.195 443.743 339.748 445.943 336.853L454.975 342.063C450.691 348.258 444.38 351.355 436.043 351.355C428.865 351.355 423.104 349.184 418.762 344.842C414.42 340.5 412.249 335.029 412.249 328.429C412.249 321.887 414.391 316.445 418.675 312.103C422.959 307.703 428.459 305.503 435.175 305.503C441.543 305.503 446.783 307.703 450.893 312.103C455.062 316.503 457.146 321.945 457.146 328.429C457.146 329.877 457.001 331.411 456.712 333.032H423.973ZM423.799 324.348H445.943C445.306 321.395 443.975 319.195 441.949 317.748C439.98 316.301 437.722 315.577 435.175 315.577C432.165 315.577 429.675 316.359 427.707 317.922C425.738 319.427 424.436 321.569 423.799 324.348Z" fill="white"/>
<path d="M139.566 422.564C139.566 424.715 140.964 426.489 143.759 427.886C146.662 429.177 150.157 430.359 154.242 431.435C158.328 432.402 162.413 433.692 166.499 435.305C170.585 436.81 174.025 439.391 176.821 443.046C179.724 446.702 181.175 451.271 181.175 456.755C181.175 465.034 178.057 471.431 171.821 475.947C165.693 480.355 158.005 482.559 148.759 482.559C132.201 482.559 120.912 476.162 114.891 463.367L132.954 453.207C135.319 460.195 140.587 463.69 148.759 463.69C156.177 463.69 159.887 461.378 159.887 456.755C159.887 454.604 158.435 452.884 155.532 451.594C152.737 450.196 149.296 448.96 145.211 447.885C141.125 446.809 137.039 445.466 132.954 443.853C128.868 442.24 125.374 439.713 122.471 436.273C119.675 432.725 118.278 428.317 118.278 423.048C118.278 415.092 121.181 408.856 126.987 404.34C132.9 399.717 140.211 397.405 148.92 397.405C155.479 397.405 161.446 398.911 166.822 401.921C172.198 404.824 176.444 409.017 179.562 414.501L161.822 424.177C159.242 418.694 154.941 415.952 148.92 415.952C146.232 415.952 143.974 416.543 142.146 417.726C140.426 418.909 139.566 420.522 139.566 422.564Z" fill="white"/>
<path d="M259.575 399.663H280.38V480.301H259.575V470.786C253.339 478.635 244.577 482.559 233.288 482.559C222.536 482.559 213.289 478.473 205.548 470.302C197.914 462.023 194.097 451.917 194.097 439.982C194.097 428.048 197.914 417.995 205.548 409.824C213.289 401.545 222.536 397.405 233.288 397.405C244.577 397.405 253.339 401.33 259.575 409.178V399.663ZM221.192 456.432C225.385 460.625 230.707 462.722 237.158 462.722C243.609 462.722 248.931 460.625 253.124 456.432C257.425 452.132 259.575 446.648 259.575 439.982C259.575 433.316 257.425 427.886 253.124 423.693C248.931 419.393 243.609 417.242 237.158 417.242C230.707 417.242 225.385 419.393 221.192 423.693C216.999 427.886 214.902 433.316 214.902 439.982C214.902 446.648 216.999 452.132 221.192 456.432Z" fill="white"/>
<path d="M351.015 397.405C361.874 397.405 371.121 401.545 378.755 409.824C386.496 417.995 390.366 428.048 390.366 439.982C390.366 451.917 386.496 462.023 378.755 470.302C371.121 478.473 361.874 482.559 351.015 482.559C339.726 482.559 331.017 478.635 324.888 470.786V521.543H295.097V399.663H324.888V409.178C331.017 401.33 339.726 397.405 351.015 397.405ZM331.178 456.432C335.371 460.625 340.693 462.722 347.145 462.722C353.596 462.722 358.918 460.625 363.111 456.432C367.412 452.132 369.562 446.648 369.562 439.982C369.562 433.316 367.412 427.886 363.111 423.693C358.918 419.393 353.596 417.242 347.145 417.242C340.693 417.242 335.371 419.393 331.178 423.693C326.985 427.886 324.888 433.316 324.888 439.982C324.888 446.648 326.985 452.132 331.178 456.432Z" fill="white"/>
<path d="M420.199 389.987C416.758 389.987 413.748 388.75 411.167 386.277C408.694 383.697 407.458 380.686 407.458 377.246C407.458 373.805 408.694 370.795 411.167 368.214C413.748 365.634 416.758 364.344 420.199 364.344C423.747 364.344 426.757 365.634 429.23 368.214C431.811 370.795 433.101 373.805 433.101 377.246C433.101 380.686 431.811 383.697 429.23 386.277C426.757 388.75 423.747 389.987 420.199 389.987ZM409.877 480.301V399.663H430.682V480.301H409.877Z" fill="white"/>
<path d="M499.396 397.405C508.213 397.405 515.47 400.362 521.169 406.275C526.975 412.189 529.878 420.36 529.878 430.789V480.301H509.073V433.37C509.073 427.994 507.622 423.908 504.719 421.113C501.816 418.21 497.945 416.758 493.107 416.758C487.731 416.758 483.43 418.425 480.205 421.758C476.979 425.091 475.366 430.091 475.366 436.757V480.301H454.562V399.663H475.366V408.695C480.42 401.168 488.43 397.405 499.396 397.405Z" fill="white"/>
<defs>
<filter id="filter0_d_164_51200" x="216.523" y="16.2822" width="211.953" height="208.891" filterUnits="userSpaceOnUse" color-interpolation-filters="sRGB">
<feFlood flood-opacity="0" result="BackgroundImageFix"/>
<feColorMatrix in="SourceAlpha" type="matrix" values="0 0 0 0 0 0 0 0 0 0 0 0 0 0 0 0 0 0 127 0" result="hardAlpha"/>
<feOffset/>
<feGaussianBlur stdDeviation="36"/>
<feComposite in2="hardAlpha" operator="out"/>
<feColorMatrix type="matrix" values="0 0 0 0 1 0 0 0 0 1 0 0 0 0 1 0 0 0 0.5 0"/>
<feBlend mode="normal" in2="BackgroundImageFix" result="effect1_dropShadow_164_51200"/>
<feBlend mode="normal" in="SourceGraphic" in2="effect1_dropShadow_164_51200" result="shape"/>
</filter>
</defs>
</svg>
