<svg width="1400" height="699" viewBox="0 0 1400 699" fill="none" xmlns="http://www.w3.org/2000/svg">
<g clip-path="url(#clip0_164_49920)">
<path fill-rule="evenodd" clip-rule="evenodd" d="M86.819 36.3552C76.8849 40.0047 68.8063 47.4512 64.3623 57.0531C59.9182 66.655 59.475 77.627 63.1271 87.5537L64.705 91.835C67.1753 98.5434 71.4657 104.053 76.8198 108.021L63.9013 112.769C57.9385 114.96 53.0925 119.424 50.4273 125.188C47.762 130.951 47.4961 137.53 49.6886 143.488L55.1964 158.464C57.3889 164.422 61.8566 169.265 67.6244 171.928C73.3863 174.591 79.9756 174.857 85.9385 172.666L168.349 142.39L146.312 82.4988L161.299 76.9951L183.336 136.886L265.746 106.61C271.709 104.419 276.555 99.9547 279.22 94.1912C281.885 88.4277 282.151 81.8492 279.959 75.8908L274.451 60.9151C272.258 54.9567 267.791 50.1144 262.023 47.4512C256.255 44.7879 249.672 44.5222 243.709 46.713L230.79 51.4608C232.297 44.9769 231.996 37.9969 229.526 31.2885L227.948 27.0072C224.296 17.0805 216.843 9.00803 207.234 4.56729C197.625 0.126544 186.645 -0.316352 176.711 3.33309C157.635 10.3426 144.675 26.6588 141.105 45.2426C133.588 39.2075 124.641 35.2214 115.126 33.6624C105.612 32.1094 95.8549 33.0365 86.8072 36.3611L86.819 36.3552ZM161.304 76.9833L203.05 61.6474C213.091 57.9566 218.244 46.8193 214.551 36.7863L212.973 32.505C210.78 26.5466 206.312 21.7043 200.545 19.041C194.777 16.3778 188.193 16.112 182.231 18.3029C172.296 21.9523 164.218 29.3988 159.774 39.0008C155.33 48.6027 154.887 59.5746 158.539 69.5014L161.293 76.9892L161.304 76.9833ZM146.318 82.487L104.572 97.8229C94.5311 101.514 83.3855 96.3584 79.6919 86.3313L78.1141 82.05C75.9216 76.0916 76.1875 69.5132 78.8528 63.7497C81.518 57.9861 86.364 53.5218 92.3268 51.3309C97.2437 49.5239 102.474 48.7031 107.71 48.9157C112.946 49.1283 118.093 50.3684 122.85 52.5651C127.608 54.7619 131.886 57.8739 135.438 61.7242C138.99 65.5744 141.749 70.086 143.558 74.9991L146.312 82.487H146.318Z" fill="#EB413D"/>
<path d="M173.863 157.347L83.9587 190.381L103.242 242.784C106.894 252.711 114.346 260.783 123.955 265.224C133.564 269.665 144.545 270.108 154.479 266.458L206.921 247.19L173.863 157.353V157.347ZM221.908 241.68L274.35 222.411C284.285 218.762 292.363 211.315 296.807 201.713C301.251 192.111 301.694 181.139 298.042 171.213L278.759 118.81L188.855 151.844L221.914 241.68H221.908Z" fill="#EB413D"/>
<path fill-rule="evenodd" clip-rule="evenodd" d="M436.772 36.3572C426.838 40.0066 418.759 47.4531 414.315 57.0551C409.871 66.657 409.428 77.6289 413.08 87.5557L414.658 91.837C417.128 98.5453 421.418 104.055 426.772 108.023L413.854 112.771C407.891 114.962 403.045 119.426 400.38 125.19C397.715 130.953 397.449 137.532 399.641 143.49L405.149 158.466C407.342 164.424 411.809 169.267 417.577 171.93C423.339 174.593 429.928 174.859 435.891 172.668L518.301 142.392L496.264 82.5008L511.251 76.9971L533.288 136.888L615.699 106.612C621.661 104.421 626.507 99.9567 629.173 94.1932C631.838 88.4296 632.104 81.8512 629.911 75.8928L624.404 60.9171C622.211 54.9587 617.743 50.1164 611.976 47.4531C606.208 44.7899 599.624 44.5241 593.661 46.715L580.743 51.4628C582.25 44.9788 581.949 37.9988 579.478 31.2905L577.9 27.0092C574.248 17.0825 566.796 9.00999 557.187 4.56924C547.578 0.128497 536.598 -0.314399 526.664 3.33504C507.587 10.3446 494.627 26.6608 491.058 45.2446C483.541 39.2094 474.594 35.2234 465.079 33.6644C455.564 32.1113 445.808 33.0384 436.76 36.3631L436.772 36.3572ZM511.251 76.9853L552.997 61.6493C563.038 57.9586 568.191 46.8213 564.497 36.7883L562.919 32.507C560.727 26.5486 556.259 21.7063 550.491 19.043C544.724 16.3797 538.14 16.114 532.177 18.3048C522.243 21.9543 514.165 29.4008 509.721 39.0027C505.277 48.6047 504.833 59.5766 508.485 69.5033L511.239 76.9912L511.251 76.9853ZM496.27 82.489L454.524 97.8249C444.484 101.516 433.338 96.3604 429.645 86.3333L428.067 82.052C425.874 76.0936 426.14 69.5151 428.805 63.7516C431.471 57.9881 436.317 53.5237 442.279 51.3329C447.196 49.5259 452.426 48.705 457.662 48.9176C462.898 49.1302 468.046 50.3703 472.803 52.5671C477.56 54.7638 481.839 57.8759 485.39 61.7261C488.942 65.5763 491.702 70.0879 493.51 75.0011L496.264 82.489H496.27Z" fill="#EB413D"/>
<path d="M523.815 157.349L433.911 190.383L453.195 242.786C456.847 252.713 464.299 260.785 473.908 265.226C483.517 269.667 494.497 270.11 504.431 266.46L556.874 247.192L523.815 157.355V157.349ZM571.855 241.682L624.297 222.413C634.231 218.764 642.31 211.317 646.754 201.715C651.198 192.113 651.641 181.141 647.989 171.215L628.706 118.812L538.802 151.845L571.861 241.682H571.855Z" fill="#EB413D"/>
<path fill-rule="evenodd" clip-rule="evenodd" d="M786.724 36.3572C776.79 40.0066 768.712 47.4531 764.268 57.0551C759.824 66.657 759.38 77.6289 763.033 87.5557L764.61 91.837C767.081 98.5453 771.371 104.055 776.725 108.023L763.807 112.771C757.844 114.962 752.998 119.426 750.333 125.19C747.667 130.953 747.402 137.532 749.594 143.49L755.102 158.466C757.294 164.424 761.762 169.267 767.53 171.93C773.292 174.593 779.881 174.859 785.844 172.668L868.254 142.392L846.217 82.5008L861.204 76.9971L883.241 136.888L965.651 106.612C971.614 104.421 976.46 99.9567 979.125 94.1932C981.791 88.4296 982.057 81.8512 979.864 75.8928L974.356 60.9171C972.164 54.9587 967.696 50.1164 961.928 47.4531C956.16 44.7899 949.577 44.5241 943.614 46.715L930.696 51.4628C932.203 44.9788 931.901 37.9988 929.431 31.2905L927.853 27.0092C924.201 17.0825 916.749 9.00999 907.14 4.56924C897.531 0.128497 886.55 -0.314399 876.616 3.33504C857.54 10.3446 844.58 26.6608 841.011 45.2446C833.494 39.2094 824.546 35.2234 815.032 33.6644C805.517 32.1113 795.76 33.0384 786.713 36.3631L786.724 36.3572ZM861.204 76.9853L902.95 61.6493C912.99 57.9586 918.144 46.8213 914.45 36.7883L912.872 32.507C910.68 26.5486 906.212 21.7063 900.444 19.043C894.676 16.3797 888.093 16.114 882.13 18.3048C872.196 21.9543 864.117 29.4008 859.673 39.0027C855.229 48.6047 854.786 59.5766 858.438 69.5033L861.192 76.9912L861.204 76.9853ZM846.223 82.489L804.477 97.8249C794.437 101.516 783.291 96.3604 779.597 86.3333L778.02 82.052C775.827 76.0936 776.093 69.5151 778.758 63.7516C781.423 57.9881 786.269 53.5237 792.232 51.3329C797.149 49.5259 802.379 48.705 807.615 48.9176C812.851 49.1302 817.998 50.3703 822.756 52.5671C827.513 54.7638 831.792 57.8759 835.343 61.7261C838.895 65.5763 841.655 70.0879 843.463 75.0011L846.217 82.489H846.223Z" fill="#EB413D"/>
<path d="M873.768 157.349L783.864 190.383L803.147 242.786C806.8 252.713 814.252 260.785 823.861 265.226C833.47 269.667 844.45 270.11 854.384 266.46L906.827 247.192L873.768 157.355V157.349ZM921.808 241.682L974.25 222.413C984.184 218.764 992.263 211.317 996.707 201.715C1001.15 192.113 1001.59 181.141 997.942 171.215L978.659 118.812L888.755 151.845L921.813 241.682H921.808Z" fill="#EB413D"/>
<path fill-rule="evenodd" clip-rule="evenodd" d="M1136.68 36.3562C1126.74 40.0056 1118.66 47.4522 1114.22 57.0541C1109.78 66.656 1109.33 77.628 1112.99 87.5547L1114.56 91.836C1117.03 98.5443 1121.32 104.054 1126.68 108.022L1113.76 112.77C1107.8 114.961 1102.95 119.425 1100.29 125.189C1097.62 130.952 1097.35 137.531 1099.55 143.489L1105.05 158.465C1107.25 164.423 1111.71 169.266 1117.48 171.929C1123.24 174.592 1129.83 174.858 1135.8 172.667L1218.21 142.391L1196.17 82.4998L1211.16 76.9961L1233.19 136.887L1315.6 106.611C1321.57 104.42 1326.41 99.9557 1329.08 94.1922C1331.74 88.4287 1332.01 81.8502 1329.82 75.8918L1324.31 60.9161C1322.12 54.9577 1317.65 50.1154 1311.88 47.4522C1306.11 44.7889 1299.53 44.5232 1293.57 46.714L1280.65 51.4618C1282.16 44.9779 1281.85 37.9979 1279.38 31.2895L1277.81 27.0082C1274.15 17.0815 1266.7 9.00901 1257.09 4.56826C1247.48 0.12752 1236.5 -0.315375 1226.57 3.33407C1207.49 10.3436 1194.53 26.6598 1190.96 45.2436C1183.45 39.2084 1174.5 35.2224 1164.98 33.6634C1155.47 32.1103 1145.71 33.0375 1136.67 36.3621L1136.68 36.3562ZM1211.16 76.9843L1252.9 61.6484C1262.94 57.9576 1268.1 46.8203 1264.4 36.7873L1262.82 32.506C1260.63 26.5476 1256.16 21.7053 1250.4 19.042C1244.63 16.3788 1238.05 16.113 1232.08 18.3039C1222.15 21.9533 1214.07 29.3998 1209.63 39.0018C1205.18 48.6037 1204.74 59.5756 1208.39 69.5023L1211.14 76.9902L1211.16 76.9843ZM1196.17 82.488L1154.42 97.8239C1144.38 101.515 1133.24 96.3594 1129.54 86.3323L1127.97 82.051C1125.77 76.0926 1126.04 69.5142 1128.7 63.7506C1131.37 57.9871 1136.22 53.5227 1142.18 51.3319C1147.1 49.5249 1152.33 48.7041 1157.56 48.9167C1162.8 49.1292 1167.94 50.3693 1172.7 52.5661C1177.46 54.7628 1181.74 57.8749 1185.29 61.7251C1188.84 65.5754 1191.6 70.087 1193.41 75.0001L1196.16 82.488H1196.17Z" fill="#EB413D"/>
<path d="M1223.72 157.348L1133.82 190.382L1153.1 242.785C1156.75 252.712 1164.2 260.784 1173.81 265.225C1183.42 269.666 1194.4 270.109 1204.34 266.459L1256.78 247.191L1223.72 157.354V157.348ZM1271.76 241.681L1324.2 222.412C1334.14 218.763 1342.22 211.316 1346.66 201.714C1351.1 192.112 1351.55 181.14 1347.89 171.214L1328.61 118.811L1238.71 151.844L1271.77 241.681H1271.76Z" fill="#EB413D"/>
<path fill-rule="evenodd" clip-rule="evenodd" d="M-88.1545 386.047C-98.0887 389.696 -106.167 397.143 -110.611 406.745C-115.055 416.346 -115.499 427.318 -111.846 437.245L-110.268 441.526C-107.798 448.235 -103.508 453.744 -98.1537 457.713L-111.072 462.46C-117.035 464.651 -121.881 469.116 -124.546 474.879C-127.211 480.643 -127.477 487.221 -125.285 493.18L-119.777 508.155C-117.585 514.114 -113.117 518.956 -107.349 521.619C-101.587 524.283 -94.9979 524.548 -89.0351 522.357L-6.62475 492.081L-28.6619 432.19L-13.675 426.687L8.36216 486.578L90.7725 456.301C96.7353 454.11 101.581 449.646 104.246 443.883C106.912 438.119 107.178 431.541 104.985 425.582L99.4774 410.607C97.2849 404.648 92.8172 399.806 87.0494 397.143C81.2815 394.479 74.6982 394.214 68.7353 396.404L55.8168 401.152C57.3237 394.668 57.0224 387.688 54.5521 380.98L52.9742 376.699C49.3221 366.772 41.87 358.699 32.2609 354.259C22.6517 349.818 11.6716 349.375 1.73743 353.025C-17.339 360.034 -30.2989 376.35 -33.8683 394.934C-41.3854 388.899 -50.3326 384.913 -59.8472 383.354C-69.3618 381.801 -79.1186 382.728 -88.1663 386.053L-88.1545 386.047ZM-13.675 426.669L28.0709 411.333C38.1114 407.642 43.2646 396.505 39.5711 386.472L37.9932 382.19C35.8008 376.232 31.333 371.39 25.5652 368.727C19.7974 366.063 13.214 365.798 7.25115 367.988C-2.683 371.638 -10.7615 379.084 -15.2056 388.686C-19.6497 398.288 -20.0929 409.26 -16.4407 419.187L-13.6868 426.675L-13.675 426.669ZM-28.656 432.178L-70.4019 447.514C-80.4424 451.205 -91.588 446.05 -95.2816 436.023L-96.8594 431.741C-99.0519 425.783 -98.786 419.205 -96.1207 413.441C-93.4555 407.678 -88.6096 403.213 -82.6467 401.022C-77.7299 399.215 -72.4998 398.395 -67.2638 398.607C-62.0279 398.82 -56.8806 400.06 -52.1233 402.257C-47.366 404.453 -43.0874 407.565 -39.5357 411.416C-35.984 415.266 -33.2242 419.777 -31.4158 424.691L-28.6619 432.178H-28.656Z" fill="#EB413D"/>
<path d="M-1.11102 507.039L-91.0148 540.073L-71.7315 592.476C-68.0794 602.402 -60.6273 610.475 -51.0182 614.916C-41.409 619.356 -30.4289 619.799 -20.4947 616.15L31.9477 596.881L-1.11102 507.039ZM46.9287 591.371L99.371 572.103C109.305 568.453 117.384 561.007 121.828 551.405C126.272 541.803 126.715 530.831 123.063 520.904L103.78 468.501L13.8759 501.535L46.9346 591.371H46.9287Z" fill="#EB413D"/>
<path fill-rule="evenodd" clip-rule="evenodd" d="M261.798 386.049C251.864 389.698 243.786 397.145 239.342 406.746C234.898 416.348 234.454 427.32 238.107 437.247L239.684 441.528C242.155 448.237 246.445 453.746 251.799 457.715L238.881 462.462C232.918 464.653 228.072 469.118 225.407 474.881C222.741 480.645 222.475 487.223 224.668 493.182L230.176 508.157C232.368 514.116 236.836 518.958 242.604 521.621C248.366 524.284 254.955 524.55 260.918 522.359L343.328 492.083L321.291 432.192L336.278 426.688L358.315 486.579L440.725 456.303C446.688 454.112 451.534 449.648 454.199 443.885C456.865 438.121 457.131 431.543 454.938 425.584L449.43 410.608C447.238 404.65 442.77 399.808 437.002 397.145C431.234 394.481 424.651 394.216 418.688 396.406L405.77 401.154C407.277 394.67 406.975 387.69 404.505 380.982L402.927 376.701C399.275 366.774 391.823 358.701 382.214 354.261C372.605 349.82 361.624 349.377 351.69 353.026C332.614 360.036 319.654 376.352 316.085 394.936C308.567 388.901 299.62 384.915 290.106 383.356C280.591 381.803 270.834 382.73 261.787 386.054L261.798 386.049ZM336.278 426.671L378.024 411.335C388.064 407.644 393.218 396.507 389.524 386.474L387.946 382.192C385.754 376.234 381.286 371.392 375.518 368.728C369.75 366.065 363.167 365.799 357.204 367.99C347.27 371.64 339.191 379.086 334.747 388.688C330.303 398.29 329.86 409.262 333.512 419.189L336.266 426.677L336.278 426.671ZM321.291 432.18L279.545 447.516C269.505 451.207 258.359 446.052 254.665 436.025L253.088 431.743C250.895 425.785 251.161 419.207 253.826 413.443C256.491 407.68 261.337 403.215 267.3 401.024C272.217 399.217 277.447 398.396 282.683 398.609C287.919 398.822 293.066 400.062 297.824 402.258C302.581 404.455 306.86 407.567 310.411 411.417C313.963 415.268 316.723 419.779 318.531 424.693L321.285 432.18H321.291Z" fill="#EB413D"/>
<path d="M348.842 507.042L258.938 540.075L278.221 592.479C281.874 602.405 289.326 610.478 298.935 614.919C308.544 619.359 319.524 619.802 329.458 616.153L381.901 596.884L348.842 507.047V507.042ZM396.882 591.374L449.324 572.106C459.258 568.456 467.337 561.01 471.781 551.408C476.225 541.806 476.668 530.834 473.016 520.907L453.733 468.504L363.829 501.538L396.887 591.374H396.882Z" fill="#EB413D"/>
<path fill-rule="evenodd" clip-rule="evenodd" d="M611.745 386.049C601.811 389.698 593.732 397.145 589.288 406.746C584.844 416.348 584.401 427.32 588.053 437.247L589.631 441.528C592.101 448.237 596.392 453.746 601.746 457.715L588.827 462.462C582.864 464.653 578.019 469.118 575.353 474.881C572.688 480.645 572.422 487.223 574.615 493.182L580.122 508.157C582.315 514.116 586.783 518.958 592.55 521.621C598.312 524.284 604.902 524.55 610.865 522.359L693.275 492.083L671.238 432.192L686.225 426.688L708.262 486.579L790.672 456.303C796.635 454.112 801.481 449.648 804.146 443.885C806.811 438.121 807.077 431.543 804.885 425.584L799.377 410.608C797.184 404.65 792.717 399.808 786.949 397.145C781.181 394.481 774.598 394.216 768.635 396.406L755.716 401.154C757.223 394.67 756.922 387.69 754.452 380.982L752.874 376.701C749.222 366.774 741.77 358.701 732.16 354.261C722.551 349.82 711.571 349.377 701.637 353.026C682.561 360.036 669.601 376.352 666.031 394.936C658.514 388.901 649.567 384.915 640.052 383.356C630.538 381.803 620.781 382.73 611.733 386.054L611.745 386.049ZM686.23 426.671L727.976 411.335C738.017 407.644 743.17 396.507 739.477 386.474L737.899 382.192C735.706 376.234 731.238 371.392 725.471 368.728C719.703 366.065 713.119 365.799 707.157 367.99C697.222 371.64 689.144 379.086 684.7 388.688C680.256 398.29 679.813 409.262 683.465 419.189L686.219 426.677L686.23 426.671ZM671.244 432.18L629.498 447.516C619.457 451.207 608.311 446.052 604.618 436.025L603.04 431.743C600.848 425.785 601.114 419.207 603.779 413.443C606.444 407.68 611.29 403.215 617.253 401.024C622.17 399.217 627.4 398.396 632.636 398.609C637.872 398.822 643.019 400.062 647.776 402.258C652.534 404.455 656.812 407.567 660.364 411.417C663.916 415.268 666.675 419.779 668.484 424.693L671.238 432.18H671.244Z" fill="#EB413D"/>
<path d="M698.794 507.042L608.891 540.075L628.174 592.479C631.826 602.405 639.278 610.478 648.887 614.919C658.496 619.359 669.477 619.802 679.411 616.153L731.853 596.884L698.794 507.047V507.042ZM746.834 591.374L799.276 572.105C809.211 568.456 817.289 561.01 821.733 551.408C826.177 541.806 826.62 530.834 822.968 520.907L803.685 468.504L713.781 501.538L746.84 591.374H746.834Z" fill="#EB413D"/>
<path fill-rule="evenodd" clip-rule="evenodd" d="M961.698 386.048C951.764 389.697 943.685 397.144 939.241 406.745C934.797 416.347 934.354 427.319 938.006 437.246L939.584 441.527C942.054 448.236 946.344 453.745 951.699 457.714L938.78 462.461C932.817 464.652 927.971 469.117 925.306 474.88C922.641 480.644 922.375 487.222 924.567 493.181L930.075 508.156C932.268 514.115 936.735 518.957 942.503 521.62C948.265 524.284 954.854 524.549 960.817 522.358L1043.23 492.082L1021.19 432.191L1036.18 426.688L1058.21 486.579L1140.62 456.302C1146.59 454.111 1151.43 449.647 1154.1 443.884C1156.76 438.12 1157.03 431.542 1154.84 425.583L1149.33 410.608C1147.14 404.649 1142.67 399.807 1136.9 397.144C1131.13 394.48 1124.55 394.215 1118.59 396.405L1105.67 401.153C1107.18 394.669 1106.87 387.689 1104.4 380.981L1102.83 376.7C1099.17 366.773 1091.72 358.7 1082.11 354.26C1072.5 349.819 1061.52 349.376 1051.59 353.025C1032.51 360.035 1019.55 376.351 1015.98 394.935C1008.47 388.9 999.52 384.914 990.005 383.355C980.491 381.802 970.734 382.729 961.686 386.054L961.698 386.048ZM1036.18 426.67L1077.93 411.334C1087.97 407.643 1093.12 396.506 1089.43 386.473L1087.85 382.191C1085.66 376.233 1081.19 371.391 1075.42 368.728C1069.66 366.064 1063.07 365.799 1057.11 367.989C1047.18 371.639 1039.1 379.085 1034.65 388.687C1030.21 398.289 1029.77 409.261 1033.42 419.188L1036.17 426.676L1036.18 426.67ZM1021.2 432.179L979.45 447.515C969.41 451.206 958.264 446.051 954.571 436.024L952.993 431.742C950.8 425.784 951.066 419.206 953.732 413.442C956.397 407.679 961.243 403.214 967.206 401.023C972.122 399.216 977.353 398.395 982.588 398.608C987.824 398.821 992.972 400.061 997.729 402.258C1002.49 404.454 1006.76 407.566 1010.32 411.417C1013.87 415.267 1016.63 419.778 1018.44 424.692L1021.19 432.179H1021.2Z" fill="#EB413D"/>
<path d="M1048.74 507.041L958.838 540.074L978.121 592.478C981.773 602.404 989.225 610.477 998.834 614.918C1008.44 619.358 1019.42 619.801 1029.36 616.152L1081.8 596.883L1048.74 507.046V507.041ZM1096.79 591.373L1149.23 572.105C1159.16 568.455 1167.24 561.009 1171.69 551.407C1176.13 541.805 1176.57 530.833 1172.92 520.906L1153.64 468.503L1063.73 501.537L1096.79 591.373H1096.79Z" fill="#EB413D"/>
<path fill-rule="evenodd" clip-rule="evenodd" d="M1311.65 386.048C1301.72 389.697 1293.64 397.144 1289.19 406.745C1284.75 416.347 1284.31 427.319 1287.96 437.246L1289.54 441.527C1292.01 448.236 1296.3 453.745 1301.65 457.714L1288.73 462.461C1282.77 464.652 1277.92 469.117 1275.26 474.88C1272.59 480.644 1272.33 487.222 1274.52 493.181L1280.03 508.156C1282.22 514.115 1286.69 518.957 1292.46 521.62C1298.22 524.284 1304.81 524.549 1310.77 522.358L1393.18 492.082L1371.14 432.191L1386.13 426.688L1408.17 486.579L1490.58 456.302C1496.54 454.111 1501.39 449.647 1504.05 443.884C1506.72 438.12 1506.98 431.542 1504.79 425.583L1499.28 410.608C1497.09 404.649 1492.62 399.807 1486.85 397.144C1481.09 394.48 1474.5 394.215 1468.54 396.405L1455.62 401.153C1457.13 394.669 1456.83 387.689 1454.36 380.981L1452.78 376.7C1449.13 366.773 1441.67 358.7 1432.07 354.26C1422.46 349.819 1411.48 349.376 1401.54 353.025C1382.47 360.035 1369.51 376.351 1365.94 394.935C1358.42 388.9 1349.47 384.914 1339.96 383.355C1330.44 381.802 1320.69 382.729 1311.64 386.054L1311.65 386.048ZM1386.13 426.67L1427.88 411.334C1437.92 407.643 1443.07 396.506 1439.38 386.473L1437.8 382.191C1435.61 376.233 1431.14 371.391 1425.37 368.728C1419.6 366.064 1413.02 365.799 1407.06 367.989C1397.12 371.639 1389.04 379.085 1384.6 388.687C1380.16 398.289 1379.71 409.261 1383.36 419.188L1386.12 426.676L1386.13 426.67ZM1371.15 432.179L1329.4 447.515C1319.36 451.206 1308.22 446.051 1304.52 436.024L1302.95 431.742C1300.75 425.784 1301.02 419.206 1303.68 413.442C1306.35 407.679 1311.2 403.214 1317.16 401.023C1322.08 399.216 1327.31 398.395 1332.54 398.608C1337.78 398.821 1342.92 400.061 1347.68 402.258C1352.44 404.454 1356.72 407.566 1360.27 411.417C1363.82 415.267 1366.58 419.778 1368.39 424.692L1371.14 432.179H1371.15Z" fill="#EB413D"/>
<path d="M1398.69 507.041L1308.79 540.075L1328.07 592.478C1331.73 602.404 1339.18 610.477 1348.79 614.918C1358.4 619.358 1369.38 619.801 1379.31 616.152L1431.75 596.883L1398.69 507.046V507.041ZM1446.73 591.373L1499.18 572.105C1509.11 568.455 1517.19 561.009 1521.63 551.407C1526.08 541.805 1526.52 530.833 1522.87 520.906L1503.58 468.503L1413.68 501.537L1446.74 591.373H1446.73Z" fill="#EB413D"/>
</g>
<defs>
<clipPath id="clip0_164_49920">
<rect width="1400" height="698" fill="white" transform="translate(0 0.725586)"/>
</clipPath>
</defs>
</svg>
